<svg width="64" height="64" viewBox="0 0 64 64" fill="none" xmlns="http://www.w3.org/2000/svg">
    <!-- Rounded square background (Blazor-themed) -->
    <rect width="64" height="64" rx="12" fill="#512BD4" /> <!-- Blazor purple -->

    <!-- Location Pin -->
    <path d="M32 44C40 32 48 24 48 16C48 8 40 4 32 4C24 4 16 8 16 16C16 24 24 32 32 44Z"
        fill="white" />
    <path d="M32 24C36 24 40 20 40 16C40 12 36 8 32 8C28 8 24 12 24 16C24 20 28 24 32 24Z"
        fill="#512BD4" />

    <!-- Small Gear (top-right) -->
    <circle cx="48" cy="16" r="6" fill="white" stroke="#512BD4" stroke-width="2" />
    <path d="M48 12V14M48 18V20M44 16H42M52 16H54M46 12L45 11M51 13L50 14M51 19L50 18M46 20L45 21"
        stroke="#512BD4" stroke-width="1.5" />
</svg>